
<svg width="126px" height="126px" viewBox="0 0 126 126" version="1.1" xmlns="http://www.w3.org/2000/svg" xmlns:xlink="http://www.w3.org/1999/xlink">
    <!-- Generator: Sketch 43.2 (39069) - http://www.bohemiancoding.com/sketch -->
    <desc>Created with Sketch.</desc>
    <defs></defs>
    <g id="Symbols" stroke="none" stroke-width="1" fill="none" fill-rule="evenodd">
        <g id="target" fill="#000000">
            <g id="Group-2">
                <path d="M94.5727553,8.91688615 C94.5182351,8.88485926 94.46365,8.85289721 94.409,8.821 C84.821,3.226 74.354,0.429 63.001,0.429 C51.649,0.429 41.179,3.226 31.593,8.821 C22.006,14.415 14.416,22.005 8.821,31.592 C3.225,41.179 0.428,51.649 0.428,63 C0.428,74.352 3.226,84.82 8.82,94.408 C14.415,103.993 22.005,111.584 31.592,117.179 C41.179,122.774 51.648,125.571 63,125.571 C74.352,125.571 84.822,122.774 94.408,117.179 C103.994,111.585 111.584,103.994 117.179,94.408 C122.773,84.821 125.57,74.351 125.57,63 C125.57,51.648 122.773,41.178 117.18,31.592 C117.053078,31.374542 116.925129,31.1581111 116.796153,30.9427073 L113.03652,34.7023404 C111.832114,35.9067467 109.960764,36.7032716 108.088786,36.9334015 C109.148319,38.7844689 110.114724,40.7246579 110.988,42.754 C113.758,49.19 115.144,55.938 115.144,63 C115.145,70.061 113.758,76.811 110.988,83.246 C108.218,89.682 104.511,95.222 99.867,99.866 C95.224,104.51 89.683,108.217 83.247,110.986 C76.81,113.757 70.062,115.142 63.001,115.142 C55.94,115.142 49.192,113.757 42.755,110.986 C36.319,108.217 30.778,104.51 26.134,99.866 C21.491,95.222 17.784,89.683 15.013,83.246 C12.243,76.81 10.858,70.06 10.858,63 C10.858,55.939 12.243,49.191 15.013,42.754 C17.783,36.318 21.49,30.778 26.134,26.133 C30.778,21.49 36.319,17.783 42.755,15.012 C49.191,12.243 55.94,10.858 63.001,10.858 C70.061,10.858 76.811,12.242 83.247,15.012 C85.1292954,15.822124 86.9349515,16.7123943 88.6639683,17.6828107 C88.8685655,15.757619 89.6764164,13.8132251 90.9119104,12.5777311 L94.5727553,8.91688615 Z" id="Combined-Shape"></path>
                <path d="M79.3286943,8.19101976 L89.3286943,8.19101976 L89.3286943,70.1207503 C89.3286943,72.8841057 87.0844991,75.1242478 84.3286943,75.1242478 L84.3286943,75.1242478 C81.5672706,75.1242478 79.3286943,72.8781203 79.3286943,70.1207503 L79.3286943,8.19101976 Z" id="Rectangle-2" transform="translate(84.328694, 41.657634) rotate(45.000000) translate(-84.328694, -41.657634) "></path>
                <polygon id="Rectangle-2" transform="translate(104.263456, 21.263456) rotate(405.000000) translate(-104.263456, -21.263456) " points="94.263456 8.26345597 104.263456 16.263456 114.263456 8.26345597 114.263456 26.263456 104.263456 34.263456 94.263456 26.263456"></polygon>
                <path d="M82.1845127,25.8282474 C76.4155364,22.7994158 70.0200189,21.285 63,21.285 C51.486,21.285 41.654,25.36 33.507,33.507 C25.36,41.654 21.286,51.485 21.286,63 C21.286,74.516 25.36,84.346 33.507,92.493 C41.654,100.64 51.486,104.714 63,104.714 C74.514,104.714 84.348,100.641 92.493,92.493 C100.64,84.346 104.714,74.515 104.714,63 C104.714,55.8149903 103.128226,49.2856258 99.9561926,43.4119066 L92.1048842,51.263215 C93.558884,54.8748097 94.286,58.7870327 94.286,63 C94.286,71.636 91.23,79.01 85.12,85.12 C79.01,91.23 71.637,94.285 63,94.285 C54.363,94.285 46.99,91.23 40.88,85.12 C34.769,79.01 31.714,71.636 31.714,63 C31.714,54.363 34.769,46.99 40.88,40.88 C46.991,34.77 54.364,31.714 63,31.714 C67.0407319,31.714 70.8048071,32.382879 74.2923278,33.7204323 L82.1845127,25.8282474 Z" id="Combined-Shape"></path>
                <path d="M65.711817,42.3009432 C64.8296434,42.1956491 63.925703,42.143 63,42.143 C57.242,42.143 52.327,44.18 48.253,48.253 C44.18,52.327 42.143,57.242 42.143,63 C42.143,68.758 44.179,73.673 48.253,77.746 C52.327,81.82 57.243,83.857 63,83.857 C68.758,83.857 73.674,81.82 77.747,77.746 C81.82,73.673 83.857,68.758 83.857,63 C83.857,61.8820455 83.7802115,60.7958695 83.6266419,59.7414573 L72.3624584,71.0056408 C67.4808736,75.8872256 59.5673594,75.8883242 54.6847324,71.0056973 C49.8031788,66.1241436 49.8010401,58.21172 54.6847888,53.3279713 L65.711817,42.3009432 Z" id="Combined-Shape"></path>
            </g>
        </g>
    </g>
</svg>
